<?xml version="1.0" standalone="no"?>
<!DOCTYPE svg PUBLIC "-//W3C//DTD SVG 20010904//EN"
 "http://www.w3.org/TR/2001/REC-SVG-20010904/DTD/svg10.dtd">
<svg version="1.0" xmlns="http://www.w3.org/2000/svg"
 width="5906.000000pt" height="5906.000000pt" viewBox="0 0 5906.000000 5906.000000"
 preserveAspectRatio="xMidYMid meet">
<metadata>
Created by potrace 1.11, written by Peter Selinger 2001-2013
</metadata>
<g transform="translate(0.000000,5906.000000) scale(0.100000,-0.100000)"
fill="#000000" stroke="none">
<path d="M20050 56590 c-1089 -46 -2078 -154 -3045 -331 -4452 -816 -8217
-3038 -11199 -6609 -76 -91 -142 -176 -148 -190 -20 -51 -38 -175 -38 -261 0
-309 157 -547 459 -699 201 -100 429 -151 866 -192 212 -20 777 -16 990 6 853
88 1567 363 2147 824 162 129 289 254 403 397 494 620 1258 1362 2045 1986
2312 1834 5129 3028 8155 3458 599 86 1114 135 1775 171 318 18 1258 24 1620
11 1940 -69 3848 -381 5889 -961 l214 -61 81 21 c111 29 239 92 291 145 124
123 61 288 -179 473 -67 52 -224 118 -641 272 -1352 498 -3003 927 -4591 1194
-1048 176 -1924 271 -3109 337 -239 13 -1723 20 -1985 9z"/>
<path d="M25705 51240 c-1047 -39 -2025 -132 -2964 -281 -4074 -646 -7676
-2339 -10701 -5029 -582 -518 -1230 -1160 -1745 -1731 -548 -607 -1025 -1188
-1515 -1844 -333 -447 -460 -630 -477 -688 -20 -73 -29 -337 -13 -433 72 -451
434 -738 1045 -828 292 -43 906 -54 1243 -23 676 64 1232 215 1768 481 433
214 755 445 1094 785 197 198 209 213 370 446 207 301 508 687 802 1030 1077
1254 2377 2396 3803 3341 2807 1860 6023 2922 9505 3139 878 54 1828 54 2750
-1 1581 -93 3272 -362 4945 -784 l310 -79 89 30 c184 61 324 157 371 254 13
27 19 61 19 105 0 90 -43 169 -149 275 -156 157 -193 176 -699 354 -1440 508
-3286 951 -5006 1200 -957 139 -1785 217 -2865 272 -268 13 -1690 20 -1980 9z"/>
<path d="M28975 45709 c-846 -36 -1597 -124 -2395 -280 -2616 -514 -5028
-1675 -7081 -3409 -562 -475 -1202 -1106 -1694 -1670 -562 -643 -1082 -1351
-1538 -2090 -179 -292 -470 -803 -470 -827 0 -7 -3 -13 -7 -13 -10 0 -271
-519 -385 -765 -684 -1475 -1128 -3031 -1330 -4654 -24 -195 -77 -734 -73
-749 1 -4 -1 -41 -5 -82 -43 -481 -48 -1409 -12 -2040 120 -2063 652 -4086
1564 -5945 654 -1334 1469 -2531 2488 -3657 202 -223 808 -829 1031 -1031 841
-762 1737 -1419 2677 -1965 198 -114 219 -126 511 -283 1620 -873 3497 -1471
5344 -1703 313 -40 756 -84 830 -84 8 0 80 -5 160 -11 400 -30 1244 -40 1675
-19 121 5 227 10 235 10 30 0 419 28 530 38 368 33 738 80 1080 136 118 20
229 38 245 40 203 32 725 143 1037 220 1416 349 2831 924 4099 1665 1613 941
3063 2179 4244 3624 142 174 405 512 405 521 0 4 6 12 14 18 18 15 223 298
373 516 1002 1459 1751 3085 2207 4792 62 232 114 440 120 483 2 11 6 27 9 35
9 22 91 412 126 595 88 466 184 1147 206 1465 3 41 8 93 10 115 59 534 73
1669 30 2350 -111 1711 -477 3326 -1111 4893 -1170 2894 -3220 5409 -5829
7149 -893 596 -1873 1112 -2853 1504 -178 72 -408 160 -427 163 -5 2 -27 10
-48 19 -77 33 -551 191 -803 267 -841 254 -1721 443 -2544 545 -69 8 -143 17
-165 20 -304 38 -795 77 -1210 95 -228 10 -1030 10 -1270 -1z m4435 -6374
c416 -17 658 -34 890 -65 557 -74 887 -156 1220 -305 197 -88 238 -109 249
-133 14 -29 15 -2618 1 -2952 -12 -286 -35 -407 -107 -560 -45 -94 -59 -114
-134 -185 -46 -44 -114 -102 -151 -128 -86 -62 -247 -119 -426 -153 -233 -43
-600 -34 -1096 26 -136 16 -261 30 -277 30 -16 0 -37 4 -47 9 -9 6 -80 17
-157 26 -77 8 -185 22 -240 30 -198 30 -579 76 -788 96 -305 29 -777 36 -965
15 -400 -45 -698 -144 -1005 -334 -232 -143 -420 -312 -664 -595 -46 -54 -212
-306 -282 -429 -142 -247 -325 -707 -366 -918 -16 -79 -17 -517 -16 -6005 l0
-5920 -2278 3 -2278 2 -6 213 c-4 116 -7 3262 -7 6990 l0 6777 98 2 97 1 -120
12 c-66 7 -115 13 -109 14 34 4 34 28 34 2007 l1 1955 1752 -1 c964 -1 1818
-6 1899 -11 201 -12 329 -40 454 -99 56 -26 110 -56 121 -66 11 -11 59 -52
106 -93 48 -40 87 -78 87 -85 0 -6 18 -52 40 -103 83 -192 98 -296 106 -731 7
-352 10 -369 47 -360 8 2 131 116 274 253 378 366 649 597 966 824 167 119
290 200 382 251 33 18 110 61 170 95 178 100 434 231 517 264 43 16 101 41
130 55 78 36 403 140 563 180 237 59 472 93 730 106 83 4 164 8 180 8 17 1
199 -5 405 -13z"/>
<path d="M26563 34883 c15 -2 39 -2 55 0 15 2 2 4 -28 4 -30 0 -43 -2 -27 -4z"/>
<path d="M54605 37310 c-768 -64 -1565 -361 -2437 -906 -351 -219 -793 -542
-1138 -832 l-95 -80 -6 422 c-5 388 -7 427 -27 503 -71 270 -238 426 -517 484
-86 18 -165 19 -1612 19 l-1523 0 0 -7215 0 -7215 1840 0 1840 0 0 4878 0
4877 128 134 c379 400 849 784 1275 1042 711 431 1426 578 1954 404 193 -64
328 -148 473 -294 380 -382 564 -1034 610 -2161 6 -153 10 -1723 10 -4200 0
-2665 3 -3983 10 -4040 41 -337 196 -529 495 -613 l80 -22 1548 -3 1547 -2 0
4272 c0 4265 -2 4537 -35 5093 -128 2112 -571 3506 -1399 4395 -445 478 -1042
812 -1716 960 -315 69 -586 99 -950 105 -135 2 -294 0 -355 -5z"/>
<path d="M0 32693 c0 -2655 4 -4327 10 -4493 52 -1367 215 -2441 504 -3315
473 -1427 1288 -2280 2501 -2615 595 -164 1352 -218 2015 -144 697 77 1451
292 2240 639 224 99 694 337 918 465 107 60 195 110 196 110 2 0 6 -57 9 -127
12 -245 69 -397 197 -525 85 -85 167 -132 302 -171 73 -21 75 -21 1626 -24
l1552 -3 0 7215 0 7215 -1840 0 -1840 0 0 -5232 0 -5233 -178 -126 c-856 -611
-1615 -951 -2357 -1055 -172 -25 -480 -25 -600 -1 -283 57 -499 173 -706 377
-485 479 -778 1387 -860 2670 -13 210 -13 357 2 4240 6 1675 9 3212 7 3415 -4
344 -6 376 -26 449 -68 243 -207 388 -447 463 l-90 28 -1567 3 -1568 2 0
-4227z"/>
<path d="M49165 18693 c-1268 -58 -2334 -490 -3110 -1259 -159 -157 -252 -269
-365 -435 -533 -784 -1425 -1785 -2311 -2594 -2348 -2146 -5167 -3652 -8254
-4410 -3455 -848 -7203 -769 -11224 235 l-353 88 -77 -24 c-190 -62 -337 -164
-381 -266 -30 -69 -24 -150 15 -228 33 -66 192 -228 282 -287 137 -90 1069
-406 1853 -628 1951 -552 3970 -897 5990 -1024 643 -41 839 -46 1685 -46 819
0 1006 5 1575 41 4390 275 8297 1681 11608 4178 1528 1152 2927 2535 4192
4141 282 358 826 1092 868 1171 19 36 42 203 42 305 0 508 -326 855 -917 978
-257 53 -748 81 -1118 64z"/>
<path d="M51770 10763 c-145 -7 -405 -36 -569 -64 -958 -160 -1742 -590 -2268
-1244 -395 -490 -1037 -1127 -1668 -1656 -2164 -1812 -4843 -3061 -7710 -3593
-845 -157 -1607 -246 -2565 -298 -313 -17 -1552 -17 -1870 0 -1915 103 -3639
394 -5580 942 l-245 70 -64 -15 c-143 -34 -276 -105 -335 -178 -44 -55 -48
-136 -12 -211 35 -71 99 -142 200 -220 70 -55 106 -73 271 -139 868 -344 2032
-704 3113 -962 1682 -402 3172 -616 4972 -716 306 -17 1560 -23 1922 -10 3441
128 6491 981 9223 2581 1873 1097 3601 2579 5083 4358 l150 180 18 79 c24 103
24 293 1 383 -85 328 -369 545 -837 640 -294 60 -835 92 -1230 73z"/>
</g>
</svg>
